<svg xmlns="http://www.w3.org/2000/svg" viewBox="0 0 32 32"><defs><linearGradient id="a" x1=".94" x2="31.06" y1=".94" y2="31.06" gradientUnits="userSpaceOnUse"><stop offset="0" stop-color="#3a00f4"/><stop offset=".04" stop-color="#4000f3"/><stop offset="1" stop-color="#f500e9"/></linearGradient></defs><rect width="32" height="32" fill="url(#a)" rx="3.2" ry="3.2"/><path fill="#fff" d="M22.57 10.61v10.78c0 1.84-1.07 2.81-3.11 2.81h-1.09c-.08 0-.14-.06-.14-.14v-1.81c0-.08.06-.14.14-.14h.76c.73 0 1.17-.42 1.17-1.12V10.98c0-.7-.44-1.12-1.17-1.12h-.76c-.08 0-.14-.06-.14-.14V7.91c0-.08.06-.14.14-.14h1.09c2.05 0 3.11.98 3.11 2.81ZM11.7 17.37v-6.38c0-.7.44-1.12 1.17-1.12h.76c.08 0 .14-.06.14-.14V7.92c0-.08-.06-.14-.14-.14h-1.09c-2.05 0-3.11.98-3.11 2.81v10.78c0 1.84 1.07 2.81 3.11 2.81h1.09c.08 0 .14-.06.14-.14v-1.81c0-.08-.06-.14-.14-.14h-.76c-.73 0-1.17-.42-1.17-1.12v-3.64Z"/></svg>
